<svg enable-background="new 0 0 52 52" height="52" viewBox="0 0 52 52" width="52" xmlns="http://www.w3.org/2000/svg"><g fill="#fff"><path d="m48.5 37.9-6.1-4.9c-1.4-1.1-3.4-1.2-4.8-.1l-5.2 3.8c-.6.5-1.5.4-2.1-.2l-7.8-7-7-7.8c-.6-.6-.6-1.4-.2-2.1l3.8-5.2c1.1-1.4 1-3.4-.1-4.8l-4.9-6.1c-1.5-1.8-4.2-2-5.9-.3l-5.2 5.2c-.8.8-1.2 1.9-1.2 3 .5 10.2 5.1 19.9 11.9 26.7s16.5 11.4 26.7 11.9c1.1.1 2.2-.4 3-1.2l5.2-5.2c1.9-1.5 1.8-4.3-.1-5.7z"/><path d="m48.4 2h-15.4c-1 0-1.3 1.1-.5 1.9l4.9 5-9 9.1c-.5.5-.5 1.4 0 1.9l3.7 3.7c.5.5 1.3.5 1.9 0l9.1-9.1 5.1 4.9c.7.9 1.8.6 1.8-.4v-15.3c0-.7-.9-1.7-1.6-1.7z"/></g></svg>